<svg width="32" height="32" viewBox="0 0 32 32" fill="none" xmlns="http://www.w3.org/2000/svg">
<g id="Group 14561">
<path id="Vector" d="M0 11.5809C0 7.52723 0 5.50038 0.788903 3.95207C1.48285 2.59014 2.59014 1.48285 3.95207 0.788903C5.50038 0 7.52723 0 11.5809 0H20.4191C24.4728 0 26.4997 0 28.0479 0.788903C29.4098 1.48285 30.5171 2.59014 31.2111 3.95207C32 5.50038 32 7.52723 32 11.5809V20.4191C32 24.4728 32 26.4997 31.2111 28.0479C30.5171 29.4098 29.4098 30.5171 28.0479 31.2111C26.4997 32 24.4728 32 20.4191 32H11.5809C7.52723 32 5.50038 32 3.95207 31.2111C2.59014 30.5171 1.48285 29.4098 0.788903 28.0479C0 26.4997 0 24.4728 0 20.4191V11.5809Z" fill="#330000"/>
<g id="Group">
<path id="Vector_2" d="M15.507 20.1097H10.5483L9.53938 23.3243C9.51138 23.4437 9.40144 23.5283 9.28178 23.5223H6.77017C6.62693 23.5223 6.57685 23.4416 6.61991 23.2801L10.9132 10.5983C10.9562 10.4662 10.9992 10.3158 11.042 10.147C11.0982 9.85317 11.1269 9.55466 11.128 9.25535C11.1156 9.16689 11.1933 9.08876 11.2781 9.10115H14.6914C14.7914 9.10115 14.8485 9.13786 14.863 9.21123L19.7361 23.3022C19.7789 23.4491 19.7361 23.5224 19.6073 23.5223H16.8165C16.7187 23.5335 16.6252 23.4664 16.6019 23.3683L15.507 20.1097ZM11.3211 17.3356H14.7129C14.1556 15.4313 13.5267 13.5521 13.017 11.6332C12.467 13.5555 11.867 15.47 11.3211 17.3356Z" fill="#FF9A00"/>
<path id="Vector_3" d="M22.6335 11.4352C22.4145 11.4442 22.1962 11.4057 21.9927 11.3223C21.7892 11.2389 21.6052 11.1122 21.4528 10.9509C21.3008 10.7824 21.1826 10.5849 21.1052 10.3695C21.0279 10.1542 20.9928 9.92526 21.0019 9.69589C20.9941 9.4688 21.0331 9.24263 21.1163 9.03206C21.1996 8.8215 21.3252 8.63132 21.485 8.47392C21.6432 8.31816 21.8299 8.19613 22.0345 8.11488C22.2389 8.03363 22.4571 7.99478 22.6763 8.00056C23.1916 8.00056 23.5959 8.15836 23.8892 8.47392C24.0373 8.63792 24.1524 8.83027 24.228 9.03995C24.3034 9.2496 24.3379 9.47257 24.3292 9.69589C24.3383 9.92606 24.302 10.1559 24.2227 10.3714C24.1435 10.587 24.0227 10.784 23.8677 10.9509C23.7058 11.1146 23.5124 11.2422 23.3001 11.3256C23.0876 11.4089 22.8607 11.4463 22.6335 11.4352ZM21.1522 23.3024V12.7783C21.1522 12.6462 21.2092 12.5801 21.324 12.5801H23.9644C24.0787 12.5801 24.136 12.6462 24.1361 12.7783V23.3024C24.1361 23.4494 24.0788 23.5227 23.9644 23.5226H21.3455C21.2167 23.5226 21.1522 23.4493 21.1522 23.3024Z" fill="#FF9A00"/>
</g>
</g>
</svg>
