<svg width="28" height="34" viewBox="0 0 28 34" fill="none" xmlns="http://www.w3.org/2000/svg">
<path d="M17.906 0.840332C19.0027 0.855573 20.0491 1.06365 21.0262 1.56065C21.8876 2.00166 22.5901 2.61827 23.0695 3.46814C23.3811 4.02918 23.5855 4.64334 23.6722 5.27921C23.8505 6.49984 23.6702 7.68071 23.2676 8.83541C23.0311 9.51265 22.7037 10.1478 22.3492 10.7717C21.6269 12.0417 20.6988 13.1424 19.6193 14.1182C18.2344 15.3713 16.7157 16.4681 15.0907 17.3888C14.4611 17.7443 13.8084 18.0428 13.1063 18.2254C12.6762 18.3416 12.2321 18.3978 11.7866 18.3924C11.2001 18.3805 10.7413 18.1134 10.3844 17.6635C10.0549 17.2596 9.8851 16.7489 9.90728 16.2281C9.91116 16.0833 9.93207 15.9394 9.96958 15.7994C10.182 15.0449 10.4706 14.3223 10.9019 13.6633C11.2316 13.16 11.6246 12.713 12.1385 12.3933C12.71 12.0374 13.3313 11.8853 14.0032 12.0321C14.2133 12.0814 14.411 12.1733 14.5841 12.3021C15.0264 12.6182 15.0032 13.1142 14.7908 13.431C14.6089 13.7063 14.4055 13.9667 14.1825 14.21C13.8048 14.6168 13.4035 15.0015 13.0119 15.3951C12.6653 15.7434 12.3396 16.1088 12.0755 16.5253C11.9387 16.7414 11.8125 16.9617 11.7747 17.2211C11.727 17.5465 11.8959 17.7682 12.2243 17.7986C12.3942 17.8125 12.5652 17.7953 12.7289 17.7479C13.2335 17.6085 13.702 17.3835 14.1623 17.1409C14.872 16.7655 15.527 16.3066 16.1655 15.8226C16.9395 15.2358 17.692 14.6238 18.3854 13.9432C19.1753 13.1689 19.8794 12.3273 20.4182 11.3562C20.8118 10.6471 21.1017 9.89832 21.2306 9.09517C21.3446 8.38778 21.281 7.6986 20.9533 7.04919C20.7955 6.7282 20.5486 6.45939 20.2422 6.27486C20.1008 6.18969 19.9447 6.1315 19.782 6.10323C19.1899 5.9982 18.617 6.08435 18.0541 6.27221C17.4673 6.46836 16.9229 6.75463 16.3938 7.06741C15.2454 7.74863 14.0957 8.42952 13.0013 9.19656C12.4526 9.58091 11.9208 9.98977 11.383 10.3894C10.8973 10.7505 10.4149 11.116 9.88409 11.4112C9.45334 11.6565 8.98713 11.8334 8.5021 11.9357C7.90106 12.0576 7.34707 11.9443 6.83814 11.6176C6.31 11.2787 5.94023 10.8135 5.77788 10.1979C5.6745 9.8092 5.71525 9.42386 5.80438 9.04017C5.9346 8.4769 6.18177 7.96665 6.48991 7.4829C7.25198 6.28812 8.21019 5.27457 9.32447 4.40813C10.9758 3.12421 12.7929 2.13551 14.7583 1.42017C15.7674 1.05105 16.8316 0.855016 17.906 0.840332Z" fill="#E20010"/>
<path d="M4.32038 28.1568C4.31475 27.7818 4.272 27.4445 4.05531 27.1519C3.94979 27.0105 3.8037 26.9047 3.63651 26.8484C3.20577 26.694 2.76709 26.7122 2.33934 26.8444C1.99641 26.9504 1.66573 27.0949 1.33009 27.2238C1.26383 27.2483 1.20352 27.2798 1.12334 27.3156C0.965295 26.9236 0.8099 26.5432 0.647215 26.1456C0.882793 26.034 1.10479 25.92 1.33374 25.8223C1.86122 25.5966 2.40825 25.4419 2.98345 25.4071C3.55864 25.3723 4.12622 25.4028 4.64972 25.6818C5.24182 25.9952 5.66924 26.4478 5.84816 27.1065C5.87397 27.1927 5.88943 27.2817 5.89421 27.3716C5.91707 28.2267 5.94789 29.0819 5.95153 29.9371C5.95385 30.5216 5.91542 31.1064 5.89819 31.6912C5.89511 31.7713 5.86172 31.8474 5.80475 31.9039C5.39556 32.3545 4.89491 32.6659 4.32767 32.875C3.7194 33.097 3.07164 33.1901 2.42548 33.1484C1.82908 33.1152 1.31419 32.871 0.878817 32.4658C0.443445 32.0606 0.139281 31.5712 0.0544593 30.9715C-0.0615074 30.1501 0.175396 29.4374 0.765832 28.851C1.14554 28.4739 1.61338 28.2791 2.14054 28.2102C2.72368 28.1343 3.30882 28.1545 3.89395 28.1562L4.32038 28.1568ZM4.24384 29.4921C4.20947 29.4853 4.17473 29.4806 4.1398 29.4779C3.941 29.4739 3.73988 29.4669 3.54009 29.4699C3.30053 29.4736 3.05999 29.4745 2.82176 29.4971C2.57558 29.5206 2.33668 29.5925 2.14584 29.7568C1.82908 30.0299 1.73498 30.3864 1.81218 30.7883C1.90827 31.2853 2.18593 31.6325 2.68094 31.7803C2.93618 31.8566 3.20644 31.868 3.46719 31.8134C3.70957 31.7691 3.93563 31.6606 4.12191 31.4993C4.15344 31.4749 4.17937 31.4439 4.19795 31.4086C4.21652 31.3733 4.22731 31.3344 4.22959 31.2946C4.23721 31.1199 4.25974 30.9457 4.26107 30.7711C4.26372 30.3711 4.25776 29.9712 4.25444 29.5713C4.25246 29.5447 4.24892 29.5183 4.24384 29.4921Z" fill="#E20010"/>
<path d="M24.249 29.4589C22.8276 29.4589 21.4327 29.4284 20.0182 29.4655C20.0255 29.5649 20.0298 29.659 20.0387 29.7508C20.0752 30.1262 20.156 30.491 20.3147 30.8352C20.4381 31.116 20.6297 31.3616 20.872 31.5496C21.2564 31.8415 21.6951 31.8892 22.1553 31.8299C22.5357 31.7809 22.8899 31.6417 23.2431 31.5016C23.4051 31.4376 23.5658 31.369 23.7401 31.2978C23.9057 31.6444 24.0681 31.985 24.2371 32.3355C24.2059 32.3581 24.1768 32.3832 24.1443 32.4018C23.4551 32.8107 22.7149 33.0741 21.9154 33.1436C21.1865 33.2069 20.4907 33.0873 19.8611 32.6841C19.4324 32.4094 19.1322 32.0214 18.8811 31.5874C18.5717 31.0474 18.3844 30.4461 18.3324 29.826C18.2272 28.6953 18.4673 27.6425 19.0527 26.6677C19.4609 25.9902 20.0702 25.622 20.8329 25.4951C21.534 25.3719 22.2562 25.4921 22.8796 25.8358C23.2288 26.0249 23.472 26.3228 23.6725 26.6568C23.9375 27.0971 24.077 27.5825 24.144 28.0855C24.1983 28.4911 24.2155 28.9016 24.248 29.3114C24.252 29.3535 24.249 29.3973 24.249 29.4589ZM22.5261 28.1717C22.4436 27.7936 22.3872 27.4073 22.1397 27.0869C22.0156 26.9276 21.8412 26.8151 21.645 26.7675C21.1232 26.6293 20.5987 26.8698 20.3744 27.3639C20.2942 27.5398 20.2471 27.731 20.1888 27.9162C20.1627 28 20.1458 28.0872 20.1249 28.1717C20.265 28.2088 22.3826 28.2104 22.5267 28.1726L22.5261 28.1717Z" fill="#E20010"/>
<path d="M14.9245 23.684L16.6206 23.4216V25.5047C16.997 25.5273 17.3555 25.5027 17.716 25.5415V26.8248C17.3515 26.8307 16.9946 26.8198 16.6226 26.8423V27.0226C16.6195 28.2578 16.6168 29.4931 16.6146 30.7285C16.6146 30.923 16.6302 31.1178 16.6477 31.3117C16.6756 31.6099 16.8409 31.7991 17.1298 31.8716C17.2892 31.9121 17.4529 31.9349 17.6146 31.9657L17.7769 31.9989V33.088C17.7587 33.097 17.7393 33.1034 17.7193 33.1072C17.2378 33.1287 16.7584 33.1161 16.2929 32.9746C15.8383 32.8375 15.4592 32.589 15.2021 32.1794C15.056 31.9475 14.9818 31.6867 14.9497 31.4174C14.9302 31.2487 14.9207 31.0789 14.9212 30.9091C14.9212 28.5633 14.9225 26.2176 14.9251 23.8722L14.9245 23.684Z" fill="#E20010"/>
<path d="M25.1815 23.6855L26.8216 23.4012V23.6275C26.8216 25.758 26.8225 27.8885 26.8242 30.019C26.8242 30.4089 26.8276 30.7989 26.8305 31.1892C26.8332 31.5742 26.9737 31.7704 27.3415 31.885C27.4664 31.9196 27.5933 31.9468 27.7215 31.9665C27.7997 31.9811 27.8789 31.9881 27.974 31.9997V33.1123C27.9651 33.1196 27.9547 33.1247 27.9435 33.1272C27.4776 33.1461 27.0138 33.1385 26.5608 33.0059C26.2864 32.9269 26.0308 32.793 25.8097 32.6123C25.3979 32.2753 25.2302 31.8237 25.1871 31.3145C25.1745 31.1654 25.1762 31.0146 25.1765 30.8649C25.1765 28.5343 25.1782 26.2039 25.1815 23.8737V23.6855Z" fill="#E20010"/>
<path d="M11.6271 33.0139H9.97044C9.96845 32.9447 9.96514 32.8814 9.96481 32.8188C9.96304 31.8235 9.9616 30.8281 9.9605 29.8328C9.95851 29.0376 9.95354 28.2424 9.95387 27.4472C9.9544 27.303 9.96547 27.159 9.98701 27.0165C10.0115 26.8538 10.0967 26.7183 10.215 26.604C10.8657 25.9704 11.6453 25.5907 12.5343 25.4271C13.0914 25.3249 13.6624 25.3241 14.2198 25.4247C14.2493 25.43 14.2788 25.4367 14.3076 25.444C14.3218 25.4476 14.3354 25.4546 14.3629 25.4652C14.1747 25.9436 13.9454 26.4009 13.7294 26.8528C13.4713 26.8528 13.2268 26.8452 12.9829 26.8544C12.5618 26.8684 12.1484 26.9714 11.7699 27.1566C11.6626 27.2093 11.6225 27.2749 11.6228 27.3985C11.6274 29.2098 11.6285 31.0211 11.6261 32.8324L11.6271 33.0139Z" fill="#E20010"/>
<path d="M8.74829 25.5751C8.76585 28.0574 8.74663 30.5252 8.76254 33.0082H7.14132C7.13735 32.9482 7.12939 32.8856 7.12939 32.823C7.12939 31.2624 7.12939 29.7016 7.12939 28.1406C7.12939 27.4252 7.13536 26.7099 7.13834 25.9945C7.13834 25.9402 7.13834 25.8859 7.13834 25.8176L8.74829 25.5751Z" fill="#E20010"/>
<path d="M7.87024 24.8445C7.07868 24.8425 6.58301 24.0546 6.91136 23.3108C7.11314 22.8545 7.45972 22.6813 7.9597 22.6842C8.62966 22.6899 9.12632 23.3562 8.96662 24.0073C8.83906 24.5274 8.42158 24.8459 7.87024 24.8445Z" fill="#E20010"/>
</svg>
