<svg width="32" height="20" viewBox="0 0 32 20" fill="none" xmlns="http://www.w3.org/2000/svg">
<path d="M9.01803 7.38192C9.01803 7.77571 9.0606 8.09499 9.1351 8.32913C9.22025 8.56328 9.32668 8.8187 9.47568 9.09542C9.52889 9.18056 9.55018 9.26571 9.55018 9.34021C9.55018 9.44663 9.48632 9.55306 9.34796 9.65949L8.67746 10.1065C8.58168 10.1703 8.48589 10.2023 8.40075 10.2023C8.29432 10.2023 8.18789 10.1491 8.08146 10.0533C7.93246 9.89363 7.80475 9.72335 7.69832 9.55306C7.59189 9.37213 7.48546 9.16992 7.36839 8.92513C6.53825 9.90428 5.49524 10.3938 4.23939 10.3938C3.34539 10.3938 2.63231 10.1384 2.11081 9.62756C1.58931 9.1167 1.32324 8.43556 1.32324 7.58413C1.32324 6.67949 1.64253 5.94513 2.29174 5.3917C2.94096 4.83827 3.80303 4.56156 4.89924 4.56156C5.2611 4.56156 5.6336 4.59349 6.02739 4.6467C6.42117 4.69992 6.8256 4.78506 7.25132 4.88085V4.10392C7.25132 3.29506 7.08103 2.73099 6.7511 2.40106C6.41053 2.07113 5.83582 1.91149 5.01632 1.91149C4.64382 1.91149 4.26067 1.95406 3.86689 2.04984C3.4731 2.14563 3.08996 2.2627 2.71746 2.4117C2.54717 2.4862 2.41946 2.52877 2.34496 2.55006C2.27046 2.57134 2.21724 2.58199 2.17467 2.58199C2.02567 2.58199 1.95117 2.47556 1.95117 2.25206V1.73056C1.95117 1.56027 1.97246 1.43256 2.02567 1.35806C2.07889 1.28356 2.17467 1.20906 2.32367 1.13456C2.69617 0.942986 3.14317 0.783343 3.66467 0.655629C4.18617 0.517272 4.7396 0.453415 5.32496 0.453415C6.59146 0.453415 7.51739 0.740772 8.11339 1.31549C8.69875 1.8902 8.99675 2.76292 8.99675 3.93363V7.38192H9.01803ZM4.69703 8.99963C5.04824 8.99963 5.4101 8.93578 5.79324 8.80806C6.17639 8.68035 6.51696 8.44621 6.80432 8.12692C6.9746 7.92471 7.10232 7.70121 7.16617 7.44578C7.23003 7.19035 7.2726 6.8817 7.2726 6.51985V6.07285C6.96396 5.99835 6.63403 5.93449 6.29346 5.89192C5.95289 5.84935 5.62296 5.82806 5.29303 5.82806C4.57996 5.82806 4.05846 5.96642 3.70724 6.25378C3.35603 6.54113 3.18574 6.94556 3.18574 7.47771C3.18574 7.97792 3.31346 8.35042 3.57953 8.60585C3.83496 8.87192 4.20746 8.99963 4.69703 8.99963ZM13.2432 10.1491C13.0517 10.1491 12.924 10.1171 12.8388 10.0426C12.7537 9.97878 12.6792 9.82978 12.6153 9.62756L10.1142 1.40063C10.0504 1.18777 10.0185 1.04941 10.0185 0.974915C10.0185 0.804629 10.1036 0.708843 10.2739 0.708843H11.3169C11.5191 0.708843 11.6575 0.740772 11.732 0.815272C11.8171 0.879129 11.881 1.02813 11.9448 1.23034L13.7328 8.27592L15.3931 1.23034C15.4463 1.01749 15.5102 0.879129 15.5953 0.815272C15.6805 0.751415 15.8295 0.708843 16.021 0.708843H16.8725C17.0747 0.708843 17.213 0.740772 17.2982 0.815272C17.3833 0.879129 17.4578 1.02813 17.5004 1.23034L19.182 8.36106L21.0232 1.23034C21.087 1.01749 21.1615 0.879129 21.236 0.815272C21.3212 0.751415 21.4595 0.708843 21.6511 0.708843H22.6409C22.8112 0.708843 22.907 0.793986 22.907 0.974915C22.907 1.02813 22.8963 1.08134 22.8857 1.1452C22.875 1.20906 22.8538 1.2942 22.8112 1.41127L20.2463 9.63821C20.1824 9.85106 20.1079 9.98942 20.0228 10.0533C19.9376 10.1171 19.7993 10.1597 19.6183 10.1597H18.703C18.5008 10.1597 18.3625 10.1278 18.2773 10.0533C18.1922 9.97878 18.1177 9.84042 18.0751 9.62756L16.4255 2.76292L14.7865 9.61692C14.7333 9.82978 14.6694 9.96813 14.5843 10.0426C14.4991 10.1171 14.3501 10.1491 14.1585 10.1491H13.2432ZM26.9193 10.4364C26.3659 10.4364 25.8125 10.3726 25.2803 10.2448C24.7482 10.1171 24.3331 9.97878 24.0564 9.81913C23.8861 9.72335 23.769 9.61692 23.7265 9.52113C23.6839 9.42535 23.6626 9.31892 23.6626 9.22313V8.68035C23.6626 8.45685 23.7478 8.35042 23.9074 8.35042C23.9713 8.35042 24.0351 8.36106 24.099 8.38235C24.1628 8.40363 24.2586 8.44621 24.365 8.48878C24.7269 8.64842 25.1207 8.77613 25.5358 8.86128C25.9615 8.94642 26.3765 8.98899 26.8023 8.98899C27.4728 8.98899 27.9943 8.87192 28.3561 8.63778C28.718 8.40363 28.9095 8.06306 28.9095 7.62671C28.9095 7.32871 28.8138 7.08392 28.6222 6.8817C28.4306 6.67949 28.0688 6.49856 27.5473 6.32828L26.004 5.84935C25.2271 5.60456 24.6524 5.2427 24.3012 4.76377C23.95 4.29549 23.769 3.77399 23.769 3.22056C23.769 2.77356 23.8648 2.37977 24.0564 2.0392C24.248 1.69863 24.5034 1.40063 24.8227 1.16649C25.142 0.921701 25.5038 0.740772 25.9295 0.613058C26.3553 0.485343 26.8023 0.432129 27.2705 0.432129C27.5047 0.432129 27.7495 0.442772 27.9836 0.4747C28.2284 0.506629 28.4519 0.5492 28.6754 0.591772C28.8883 0.644986 29.0905 0.6982 29.282 0.762058C29.4736 0.825915 29.6226 0.889772 29.729 0.953629C29.878 1.03877 29.9845 1.12392 30.0483 1.2197C30.1122 1.30484 30.1441 1.42192 30.1441 1.57092V2.07113C30.1441 2.29463 30.059 2.4117 29.8993 2.4117C29.8142 2.4117 29.6758 2.36913 29.4949 2.28399C28.8883 2.00727 28.2071 1.86892 27.4515 1.86892C26.8448 1.86892 26.3659 1.9647 26.036 2.16692C25.706 2.36913 25.5358 2.67777 25.5358 3.11413C25.5358 3.41213 25.6422 3.66756 25.855 3.86977C26.0679 4.07199 26.4617 4.2742 27.0258 4.45513L28.537 4.93406C29.3033 5.17885 29.8568 5.51942 30.1867 5.95578C30.5166 6.39213 30.6763 6.89235 30.6763 7.44578C30.6763 7.90342 30.5805 8.31849 30.3995 8.68035C30.208 9.04221 29.9525 9.36149 29.6226 9.61692C29.2927 9.88299 28.8989 10.0746 28.4413 10.2129C27.9623 10.3619 27.4621 10.4364 26.9193 10.4364Z" fill="#252F3E"/>
<path d="M28.9307 15.6087C25.4292 18.1949 20.3419 19.5679 15.9677 19.5679C9.83741 19.5679 4.31377 17.3009 0.141765 13.5334C-0.188164 13.2354 0.109836 12.8309 0.503622 13.0651C5.0162 15.6832 10.5824 17.269 16.3402 17.269C20.2248 17.269 24.4926 16.4601 28.4199 14.7999C29.0052 14.5338 29.5054 15.183 28.9307 15.6087ZM30.3888 13.9484C29.9418 13.3737 27.4301 13.6717 26.2913 13.8101C25.9507 13.8526 25.8975 13.5546 26.2061 13.3311C28.207 11.9263 31.4956 12.3307 31.8788 12.799C32.2619 13.2779 31.7724 16.5666 29.8992 18.1417C29.6119 18.3865 29.3351 18.2588 29.4629 17.9395C29.8886 16.8859 30.8358 14.5125 30.3888 13.9484Z" fill="#FF9900"/>
</svg>
