<svg width="32" height="32" viewBox="0 0 32 32" fill="none" xmlns="http://www.w3.org/2000/svg">
<path d="M0 27.8739C0 30.1529 1.84732 32 4.1261 32H27.8739C30.1529 32 32 30.1527 32 27.8739V4.1261C32 1.84707 30.1527 0 27.8739 0H4.1261C1.84707 0 0 1.84732 0 4.1261L0 27.8739Z" fill="#563D7C"/>
<path d="M13.2696 14.1548V9.62307H17.2586C17.6385 9.62307 18.0048 9.65473 18.3576 9.71805C18.7103 9.78137 19.0224 9.89443 19.2938 10.0572C19.5651 10.2201 19.7822 10.4462 19.945 10.7356C20.1078 11.0251 20.1892 11.3959 20.1892 11.8482C20.1892 12.6623 19.945 13.2502 19.4566 13.612C18.9681 13.9739 18.344 14.1548 17.5842 14.1548H13.2696ZM9.00928 6.3125V25.6875H18.3983C19.2666 25.6875 20.1124 25.579 20.9355 25.3619C21.7586 25.1448 22.4913 24.8101 23.1335 24.3578C23.7757 23.9056 24.2868 23.3222 24.6667 22.6076C25.0466 21.893 25.2365 21.0473 25.2365 20.0704C25.2365 18.8583 24.9426 17.8226 24.3546 16.9633C23.7667 16.104 22.8757 15.5025 21.6817 15.1588C22.5501 14.7427 23.2059 14.209 23.6491 13.5578C24.0923 12.9065 24.3139 12.0924 24.3139 11.1155C24.3139 10.211 24.1647 9.45122 23.8662 8.83613C23.5677 8.22105 23.1471 7.72809 22.6043 7.35723C22.0616 6.98637 21.4104 6.71954 20.6506 6.55672C19.8908 6.39391 19.0495 6.3125 18.1269 6.3125H9.00928ZM13.2696 22.3769V17.0583H17.9098C18.8325 17.0583 19.5742 17.2709 20.135 17.696C20.6958 18.1211 20.9762 18.8312 20.9762 19.8262C20.9762 20.3327 20.8903 20.7488 20.7184 21.0744C20.5465 21.4 20.3159 21.6578 20.0264 21.8478C19.737 22.0377 19.4023 22.1734 19.0224 22.2548C18.6425 22.3362 18.2445 22.3769 17.8284 22.3769H13.2696Z" fill="white"/>
</svg>
