<svg width="28" height="32" viewBox="0 0 28 32" fill="none" xmlns="http://www.w3.org/2000/svg">
<path d="M2.54731 28.7036L0 0.121826H28L25.4493 28.6991L13.983 31.8781L2.54731 28.7036Z" fill="#1572B6"/>
<path d="M14.0005 29.4489L23.2665 26.8801L25.4464 2.45947H14.0005V29.4489Z" fill="#33A9DC"/>
<path d="M14.0005 12.8143H18.6392L18.959 9.22466H14.0005V5.71899H14.013H22.7902L22.7063 6.65921L21.8454 16.3199H14.0005V12.8143Z" fill="white"/>
<path d="M14.0219 21.9179L14.006 21.9225L10.1023 20.8677L9.85278 18.072H7.95534H6.3335L6.82459 23.5761L14.0049 25.5699L14.0219 25.5654V21.9179Z" fill="#EBEBEB"/>
<path d="M18.3406 16.1711L17.9187 20.8654L14.0093 21.9202V25.5676L21.1953 23.576L21.2486 22.984L21.8576 16.1711H18.3406Z" fill="white"/>
<path d="M14.0127 5.71899V7.89657V9.21559V9.22466H5.55646H5.54512L5.4748 8.43643L5.31488 6.65921L5.23096 5.71899H14.0127Z" fill="#EBEBEB"/>
<path d="M14.0005 12.8145V14.992V16.3111V16.3201H10.1569H10.1455L10.0752 15.5319L9.91645 13.7547L9.83252 12.8145H14.0005Z" fill="#EBEBEB"/>
</svg>
