 <svg
                              xmlns="http://www.w3.org/2000/svg"
                              width="10"
                              height="10"
                              viewBox="0 0 10 10"
                              fill="none"
                            >
                              <path
                                d="M4.11402 0.922254C4.32731 -0.0219727 5.67269 -0.0219724 5.88598 0.922254C6.02421 1.53421 6.72646 1.82509 7.25692 1.49012C8.07541 0.973265 9.02674 1.92459 8.50988 2.74308C8.17491 3.27354 8.46579 3.97579 9.07775 4.11402C10.022 4.32731 10.022 5.67269 9.07775 5.88598C8.46579 6.02421 8.17491 6.72646 8.50988 7.25692C9.02674 8.07541 8.07541 9.02674 7.25692 8.50988C6.72646 8.17491 6.02421 8.46579 5.88598 9.07775C5.67269 10.022 4.32731 10.022 4.11402 9.07775C3.97579 8.46579 3.27354 8.17491 2.74308 8.50988C1.92459 9.02674 0.973265 8.07541 1.49012 7.25692C1.82509 6.72646 1.53421 6.02421 0.922254 5.88598C-0.0219724 5.67269 -0.0219724 4.32731 0.922254 4.11402C1.53421 3.97579 1.82509 3.27354 1.49012 2.74308C0.973265 1.92459 1.92459 0.973265 2.74308 1.49012C3.27354 1.82509 3.97579 1.53421 4.11402 0.922254Z"
                                fill="#4E4E4E"
                              />
                            </svg>