<svg width="24" height="25" viewBox="0 0 24 25" fill="none" xmlns="http://www.w3.org/2000/svg">
<g id="facebook" clip-path="url(#clip0_972_187)">
<path id="Vector" d="M23.8857 12.1095C23.8857 5.51362 18.5387 0.166626 11.9428 0.166626C5.34699 0.166626 0 5.51362 0 12.1095C0 18.7053 5.34699 24.0523 11.9428 24.0523C18.5387 24.0523 23.8857 18.7053 23.8857 12.1095Z" fill="#337FFF"/>
<path id="Vector_2" d="M14.865 12.887L15.2054 10.7247H13.109V9.31918C13.109 8.72792 13.4016 8.15017 14.3375 8.15017H15.304V6.30885C14.7412 6.21909 14.1724 6.17054 13.6024 6.16357C11.877 6.16357 10.7505 7.20079 10.7505 9.07592V10.7247H8.83789V12.887H10.7505V18.117H13.109V12.887H14.865Z" fill="white"/>
</g>
<defs>
<clipPath id="clip0_972_187">
<rect width="24" height="24" fill="white" transform="translate(0 0.166626)"/>
</clipPath>
</defs>
</svg>
