<svg width="32" height="32" viewBox="0 0 32 32" fill="none" xmlns="http://www.w3.org/2000/svg">
<g id="figma">
<path id="Vector" d="M32 5C32 2.23858 29.7614 0 27 0H5C2.23858 0 0 2.23858 0 5V27C0 29.7614 2.23858 32 5 32H27C29.7614 32 32 29.7614 32 27V5Z" fill="black"/>
<path id="Vector_2" d="M15.9834 16.0002C15.9834 14.5275 17.1773 13.3335 18.65 13.3335C20.1228 13.3335 21.3167 14.5275 21.3167 16.0002C21.3167 17.473 20.1228 18.6669 18.65 18.6669C17.1773 18.6669 15.9834 17.473 15.9834 16.0002Z" fill="#1ABCFE"/>
<path id="Vector_3" d="M10.6499 21.3331C10.6499 19.8604 11.8438 18.6665 13.3166 18.6665H15.9833V21.3331C15.9833 22.8059 14.7894 23.9998 13.3166 23.9998C11.8438 23.9998 10.6499 22.8059 10.6499 21.3331Z" fill="#0ACF83"/>
<path id="Vector_4" d="M15.9834 8V13.3333H18.65C20.1228 13.3333 21.3167 12.1394 21.3167 10.6667C21.3167 9.19391 20.1228 8 18.65 8H15.9834Z" fill="#FF7262"/>
<path id="Vector_5" d="M10.6499 10.6667C10.6499 12.1394 11.8438 13.3333 13.3166 13.3333H15.9833V8H13.3166C11.8438 8 10.6499 9.19391 10.6499 10.6667Z" fill="#F24E1E"/>
<path id="Vector_6" d="M10.6499 16.0002C10.6499 17.473 11.8438 18.6669 13.3166 18.6669H15.9833V13.3335H13.3166C11.8438 13.3335 10.6499 14.5275 10.6499 16.0002Z" fill="#A259FF"/>
</g>
</svg>
