<svg width="74" height="14" viewBox="0 0 74 14" fill="none" xmlns="http://www.w3.org/2000/svg">
<g id="flutterwave 1" clip-path="url(#clip0_897_847)">
<path id="Vector" d="M9.4837 5.95064C11.2793 4.4838 14.9464 -0.801918 9.20551 0.133831C6.70175 0.513188 3.03462 2.94108 2.3012 5.74832C1.92184 4.98961 1.4919 4.28147 1.03667 3.57334C0.32854 2.6123 -0.455466 3.37101 0.303249 4.33205C2.55234 7.05509 3.84907 10.439 3.99566 13.9677C4.1727 12.2733 3.8945 10.1994 3.21166 8.17621C3.54043 8.27737 3.91979 8.32795 4.24857 8.32795C5.41193 10.25 7.20756 11.8939 9.20551 12.6526C11.0517 13.3861 13.5049 12.9561 12.4933 9.99712C11.9622 8.37853 10.7229 6.96227 9.4837 5.95064ZM9.73661 0.816674C12.9232 0.462607 9.50899 4.43322 8.39621 5.16664C7.3593 4.4838 6.04419 3.87682 4.77967 4.05386C5.69013 2.8652 7.91569 1.04429 9.73661 0.816674ZM4.75438 4.91373C5.61425 4.83786 6.55 5.31838 7.28343 5.82419C6.57529 6.17826 5.81658 6.38058 5.03257 6.45645C3.86921 6.45645 3.61631 5.0149 4.75438 4.91373ZM9.15492 11.0846C7.66279 10.6547 6.24652 9.44073 5.2349 8.22679C6.06948 8.04976 6.90407 7.72098 7.66279 7.26575C7.94098 7.1393 8.21918 6.93697 8.47208 6.75994C9.35725 7.56924 10.293 8.65673 10.6471 9.89596C11.0011 11.2364 10.0401 11.3375 9.15492 11.0846Z" fill="#F5A623"/>
<g id="Group">
<path id="Vector_2" d="M21.6996 2.61212H17.3496C17.1979 2.61212 17.0714 2.73858 17.0714 2.89032H17.0461V9.71875C17.0461 9.8705 17.1726 9.99695 17.3243 9.99695C17.4508 9.99695 17.5772 9.8705 17.6025 9.71875V6.63331H21.2949C21.4467 6.63331 21.5226 6.50686 21.5226 6.38041C21.5226 6.22866 21.4214 6.15279 21.2949 6.15279H17.5772V3.14322H21.6996C21.8513 3.14322 21.9272 3.01677 21.9272 2.89032C21.9272 2.81445 21.8513 2.71329 21.6996 2.61212ZM23.6975 2.25806H23.6723C23.5458 2.25806 23.4699 2.35922 23.4699 2.48567V9.69346C23.4699 9.84521 23.5711 9.94637 23.6975 9.94637C23.8493 9.94637 23.9252 9.81992 23.9252 9.69346V2.53625C23.9252 2.35922 23.8493 2.25806 23.6975 2.25806ZM29.9949 4.83769C29.9949 4.68594 29.8937 4.58478 29.7673 4.58478C29.6155 4.58478 29.5396 4.71124 29.5396 4.83769V7.84726C29.5396 8.85888 28.7556 9.66817 27.7946 9.64288C26.783 9.64288 26.2013 8.93475 26.2013 7.82197V4.83769C26.2013 4.68594 26.1001 4.58478 25.9737 4.58478C25.8725 4.58478 25.7461 4.71124 25.7461 4.83769V7.89784C25.7461 9.16236 26.5048 10.0981 27.744 10.0981C28.5027 10.1234 29.2109 9.69346 29.5649 8.98533V9.76933C29.5649 9.92108 29.6914 9.99695 29.7926 9.99695C29.9443 9.99695 30.0202 9.8705 30.0202 9.76933H29.9949V4.83769ZM34.1678 5.09059C34.269 5.09059 34.3954 4.98943 34.3954 4.86298C34.3954 4.76182 34.269 4.63536 34.1678 4.63536H32.5745V3.14322C32.5745 3.01677 32.4481 2.89032 32.3469 2.89032H32.3216C32.1952 2.89032 32.1193 3.01677 32.1193 3.14322V4.63536H31.5629C31.4364 4.63536 31.3353 4.71124 31.3353 4.83769C31.3353 4.96414 31.4364 5.09059 31.5629 5.09059H32.1193V8.58068C32.1193 9.56701 32.7515 10.0475 33.485 10.0475C33.7379 10.0475 33.9908 9.99695 34.2184 9.92108C34.2943 9.8705 34.3701 9.79463 34.3701 9.69346C34.3701 9.56701 34.269 9.49114 34.1678 9.49114C33.9908 9.54172 33.7885 9.56701 33.5861 9.56701C32.9792 9.56701 32.5745 9.28882 32.5745 8.5301V5.09059H34.1678ZM38.0878 5.09059C38.2143 5.09059 38.3155 4.98943 38.3155 4.86298C38.3155 4.76182 38.2143 4.63536 38.0878 4.63536H36.4945V3.14322C36.4945 3.01677 36.3934 2.89032 36.2669 2.89032H36.2416C36.1152 2.89032 36.0393 3.01677 36.0393 3.14322V4.63536H35.4829C35.3818 4.63536 35.2553 4.71124 35.2553 4.83769C35.2553 4.96414 35.3818 5.09059 35.4829 5.09059H36.0393V8.58068C36.0393 9.56701 36.6716 10.0475 37.4303 10.0475C37.6579 10.0475 37.9108 9.99695 38.1384 9.92108C38.2396 9.8705 38.2902 9.79463 38.2902 9.69346C38.2902 9.56701 38.2143 9.49114 38.0878 9.49114C37.9108 9.54172 37.7085 9.56701 37.5062 9.56701C36.8992 9.56701 36.4945 9.28882 36.4945 8.5301V5.09059H38.0878ZM41.5526 4.48362C40.2122 4.48362 39.2006 5.69756 39.2006 7.29087V7.31616C39.2006 9.01062 40.3134 10.1234 41.6538 10.1234C42.3619 10.1487 43.0954 9.84521 43.5759 9.26352C43.6517 9.21294 43.677 9.13707 43.677 9.08649C43.677 8.96004 43.5506 8.83359 43.4494 8.83359L43.2977 8.88417C43.097 9.11809 42.849 9.30669 42.5699 9.4375C42.2909 9.5683 41.9872 9.63831 41.6791 9.64288C40.6928 9.64288 39.8076 8.85888 39.7064 7.54377H43.6517C43.7529 7.54377 43.8794 7.41732 43.8794 7.29087C43.8794 5.69756 42.9689 4.48362 41.5526 4.48362ZM39.6811 7.03796C39.757 5.8746 40.541 4.96414 41.5273 4.96414C42.6654 4.96414 43.2724 5.95047 43.323 7.03796H39.6811ZM47.7488 4.55949C46.8384 4.63536 46.0796 5.26763 45.7509 6.17808V4.86298C45.7509 4.76182 45.6244 4.63536 45.5232 4.63536C45.3715 4.63536 45.2956 4.71124 45.2703 4.86298V9.81992C45.2703 9.94637 45.3715 10.0728 45.498 10.0728C45.6244 10.0728 45.7256 9.97166 45.7509 9.81992V7.84726C45.7509 6.10221 46.6866 5.26763 47.7488 5.14117H47.7741C47.9258 5.14117 48.0017 4.98943 48.0017 4.86298C48.0017 4.68594 47.9006 4.55949 47.7488 4.55949Z" fill="black"/>
<path id="Vector_3" d="M56.2717 4.28139C55.9429 4.28139 55.6394 4.53429 55.5635 4.88836L54.7037 7.77148L53.8691 4.88836C53.7932 4.53429 53.4644 4.2561 53.0851 4.2561H53.0092C52.6298 4.2561 52.3011 4.48371 52.2252 4.88836L51.3906 7.72089L50.5813 4.86307C50.4801 4.53429 50.2019 4.2561 49.8479 4.2561H49.8226C49.4432 4.2561 49.165 4.58487 49.165 4.98952L49.2156 5.36888L50.5054 9.33949C50.6066 9.74413 50.9354 10.0223 51.34 10.0476H51.3906C51.77 10.0476 52.0734 9.76942 52.1999 9.36478L53.0345 6.53224L53.8691 9.36478C53.9702 9.76942 54.299 10.0476 54.6784 10.0476H54.7542C55.1589 10.0476 55.4877 9.76942 55.5888 9.33949L56.8786 5.3183L56.9545 5.01481V4.98952C56.9545 4.58487 56.651 4.28139 56.2717 4.28139ZM59.9894 4.28139C59.4077 4.2561 58.8513 4.38255 58.2949 4.55958C58.0673 4.66074 57.9408 4.88836 57.9408 5.16655C57.9408 5.54591 58.219 5.82411 58.5731 5.79882C58.6237 5.79882 58.6996 5.79882 58.7754 5.74824C59.1042 5.64707 59.4583 5.59649 59.8123 5.59649C60.5711 5.59649 60.9504 5.95056 60.9504 6.6334V6.70927C60.5458 6.55753 60.0905 6.50695 59.6606 6.50695C58.4214 6.50695 57.5615 7.08863 57.5615 8.32787C57.5615 9.41536 58.3961 10.0476 59.3571 10.0476C59.9641 10.0729 60.5458 9.79472 60.9504 9.33949C60.9757 9.74413 61.2792 10.0223 61.6585 10.0223C62.0632 10.0223 62.392 9.66826 62.392 9.23832V6.70927C62.4173 6.07701 62.2149 5.41946 61.8103 4.93894C61.3804 4.53429 60.7987 4.28139 59.9894 4.28139ZM60.9757 7.94851C60.9757 8.55548 60.4699 8.93484 59.787 8.90955C59.3065 8.90955 58.9778 8.65664 58.9778 8.2267V8.20141C58.9778 7.72089 59.3824 7.41741 60.0147 7.41741C60.3181 7.41741 60.6722 7.51857 60.9757 7.64502V7.94851ZM67.5259 4.2561C67.2225 4.2561 66.919 4.45842 66.8431 4.81249L65.6797 8.07496L64.567 4.83778C64.4658 4.48371 64.1876 4.2561 63.8335 4.2561C63.4542 4.2561 63.1507 4.55958 63.1001 4.98952C63.1001 5.11597 63.1507 5.24243 63.2013 5.36888L64.8199 9.33949C64.921 9.74413 65.2498 10.0223 65.6544 10.0476H65.7556C66.1097 10.0223 66.4637 9.76942 66.6155 9.36478L68.1835 5.39417L68.2594 5.01481V4.98952C68.2594 4.58487 67.9559 4.2561 67.5259 4.2561ZM71.446 4.23081C69.9032 4.23081 68.841 5.54591 68.841 7.13921V7.39212C68.8916 8.93484 70.1562 10.1235 71.5977 10.0476C72.2553 10.0476 72.8875 9.82001 73.4186 9.36478C73.5704 9.23832 73.621 9.08658 73.621 8.90955V8.88426C73.621 8.53019 73.368 8.25199 73.0393 8.25199C72.9128 8.25199 72.7864 8.27729 72.6852 8.37845C72.3904 8.63228 72.0119 8.76748 71.623 8.7578C70.9907 8.7831 70.4343 8.32787 70.3585 7.64502H73.3175C73.6968 7.61973 74.0003 7.26567 73.975 6.86102V6.73457C73.975 5.36888 72.8369 4.18022 71.446 4.23081ZM70.3079 6.70927C70.4343 5.97585 70.839 5.52062 71.446 5.52062C72.0529 5.52062 72.4576 6.00114 72.5335 6.70927H70.3079Z" fill="black" stroke="black" stroke-width="0.0252905"/>
</g>
</g>
<defs>
<clipPath id="clip0_897_847">
<rect width="74" height="13.9856" fill="white" transform="translate(0 0.00720215)"/>
</clipPath>
</defs>
</svg>
