<svg width="32" height="32" viewBox="0 0 32 32" fill="none" xmlns="http://www.w3.org/2000/svg">
<path d="M0 8C0 3.58172 3.58172 0 8 0H24C28.4183 0 32 3.58172 32 8V24C32 28.4183 28.4183 32 24 32H8C3.58172 32 0 28.4183 0 24V8Z" fill="#F0DB4F"/>
<path d="M29.3812 24.3679C29.1468 22.908 28.1949 21.6818 25.3751 20.5384C24.3956 20.0883 23.3035 19.7659 22.9781 19.0236C22.8626 18.5916 22.8472 18.3483 22.9204 18.0868C23.1302 17.2381 24.1433 16.9735 24.9462 17.2169C25.4633 17.3902 25.9528 17.7887 26.2481 18.4244C27.6289 17.5303 27.6261 17.5362 28.5903 16.9216C28.2373 16.3744 28.0489 16.1218 27.8179 15.8877C26.9873 14.96 25.8557 14.4822 24.0459 14.5188L23.1031 14.6407C22.1998 14.869 21.3388 15.3432 20.834 15.9789C19.3191 17.6977 19.7511 20.7059 21.5944 21.9438C23.4104 23.3068 26.0781 23.6169 26.4188 24.8914C26.7504 26.4517 25.2721 26.9568 23.8028 26.7774C22.7199 26.5522 22.1177 26.0018 21.4666 25.0011C20.2683 25.6946 20.2683 25.6946 19.0362 26.4032C19.3283 27.042 19.6353 27.3311 20.1251 27.8845C22.4431 30.2357 28.2437 30.1202 29.2841 26.5614C29.3263 26.4392 29.6065 25.6243 29.3812 24.3679ZM17.3963 14.7072H14.4032L14.391 22.4454C14.391 24.0911 14.4761 25.5997 14.2084 26.0622C13.7706 26.9717 12.6358 26.8589 12.1187 26.6826C11.5924 26.4239 11.3248 26.056 11.0147 25.5361C10.9296 25.3868 10.8657 25.2713 10.8442 25.2623L8.41064 26.7526C8.8153 27.5831 9.41141 28.304 10.175 28.7723C11.3156 29.4568 12.8485 29.6667 14.4518 29.2986C15.4953 28.9947 16.3956 28.3651 16.8669 27.4067C17.5484 26.1503 17.4022 24.6297 17.3961 22.9477C17.4114 20.2036 17.3963 17.46 17.3963 14.7072Z" fill="#323330"/>
</svg>
