<svg width="32" height="34" viewBox="0 0 32 34" fill="none" xmlns="http://www.w3.org/2000/svg">
<path d="M31.982 7.98126C31.9938 8.02517 32 8.07046 32 8.11595V15.187C32 15.3717 31.9012 15.5423 31.7409 15.6342L25.8061 19.0511V25.8238C25.8061 26.0081 25.7081 26.1782 25.5483 26.271L13.1599 33.4026C13.1315 33.4187 13.1006 33.429 13.0696 33.44C13.058 33.4439 13.0471 33.4509 13.0348 33.4542C12.9482 33.477 12.8572 33.477 12.7706 33.4542C12.7564 33.4503 12.7435 33.4426 12.73 33.4374C12.7017 33.4271 12.672 33.4181 12.6449 33.4026L0.259073 26.271C0.0989215 26.179 0 26.0085 0 25.8238V4.61073C0 4.56433 0.0064446 4.51922 0.0180449 4.4754C0.0219116 4.46057 0.0309341 4.44704 0.0360897 4.43222C0.0457566 4.40515 0.0547791 4.37744 0.0689572 4.3523C0.0786241 4.33555 0.0928022 4.32202 0.104402 4.30655C0.119225 4.28593 0.132759 4.26466 0.150159 4.24661C0.164982 4.23179 0.184315 4.22083 0.201071 4.20795C0.219761 4.19248 0.236517 4.17572 0.257784 4.16348H0.258428L6.45169 0.597683C6.61127 0.505851 6.80766 0.505851 6.96725 0.597683L13.1605 4.16348H13.1618C13.1824 4.17637 13.1998 4.19248 13.2185 4.2073C13.2353 4.22019 13.254 4.23179 13.2688 4.24597C13.2868 4.26466 13.2997 4.28593 13.3152 4.30655C13.3261 4.32202 13.341 4.33555 13.35 4.3523C13.3648 4.37808 13.3732 4.40515 13.3835 4.43222C13.3886 4.44704 13.3977 4.46057 13.4015 4.47604C13.4134 4.51996 13.4195 4.56524 13.4196 4.61073V17.8602L18.5804 14.8886V8.1153C18.5804 8.07019 18.5869 8.02444 18.5985 7.98126C18.603 7.96579 18.6114 7.95226 18.6165 7.93743C18.6268 7.91037 18.6358 7.88265 18.65 7.85752C18.6597 7.84076 18.6739 7.82723 18.6848 7.81176C18.7003 7.79114 18.7132 7.76987 18.7312 7.75183C18.746 7.73701 18.7647 7.72605 18.7815 7.71316C18.8008 7.69769 18.8176 7.68094 18.8382 7.66869H18.8388L25.0327 4.1029C25.1923 4.01093 25.3888 4.01093 25.5483 4.1029L31.7416 7.66869C31.7635 7.68158 31.7802 7.69769 31.7996 7.71252C31.8157 7.72541 31.8344 7.73701 31.8492 7.75118C31.8672 7.76987 31.8801 7.79114 31.8956 7.81176C31.9072 7.82723 31.9214 7.84076 31.9304 7.85752C31.9452 7.88265 31.9536 7.91037 31.9639 7.93743C31.9697 7.95226 31.9781 7.96579 31.982 7.98126ZM30.9676 14.8886V9.00853L28.8003 10.2562L25.8061 11.9801V17.8602L30.9682 14.8886H30.9676ZM24.7743 25.5254V19.6415L21.8291 21.3235L13.4189 26.1234V32.0628L24.7743 25.5254ZM1.03242 5.50331V25.5254L12.3865 32.0621V26.1241L6.45491 22.7671L6.45297 22.7658L6.4504 22.7645C6.43042 22.7529 6.41366 22.7362 6.39497 22.722C6.37886 22.7091 6.36017 22.6988 6.34599 22.6846L6.34471 22.6827C6.32795 22.6666 6.31635 22.6466 6.30217 22.6285C6.28928 22.6111 6.27381 22.5963 6.2635 22.5783L6.26286 22.5763C6.25126 22.557 6.24417 22.5338 6.23579 22.5119C6.22741 22.4926 6.21646 22.4745 6.2113 22.4539V22.4532C6.20486 22.4288 6.20357 22.403 6.20099 22.3778C6.19841 22.3585 6.19326 22.3392 6.19326 22.3198V22.3186V8.47491L3.19974 6.75034L1.03242 5.50395V5.50331ZM6.71011 1.64042L1.54993 4.61073L6.70883 7.58105L11.8684 4.61009L6.70883 1.64042H6.71011ZM9.39364 20.1777L12.3872 18.4544V5.50331L10.2198 6.75098L7.22568 8.47491V21.426L9.39364 20.1777ZM25.2905 5.14563L20.131 8.11595L25.2905 11.0863L30.4494 8.1153L25.2905 5.14563ZM24.7743 11.9801L21.7802 10.2562L19.6128 9.00853V14.8886L22.6064 16.6119L24.7743 17.8602V11.9801ZM12.9021 25.2309L20.47 20.9104L24.253 18.7515L19.0973 15.7831L13.1612 19.2007L7.75092 22.3153L12.9021 25.2309Z" fill="#FF2D20"/>
</svg>
