<svg width="24" height="25" viewBox="0 0 24 25" fill="none" xmlns="http://www.w3.org/2000/svg">
<g id="linkedin (1)" clip-path="url(#clip0_972_190)">
<path id="Vector" d="M12 24.1664C18.6274 24.1664 24 18.7938 24 12.1664C24 5.53896 18.6274 0.166382 12 0.166382C5.37258 0.166382 0 5.53896 0 12.1664C0 18.7938 5.37258 24.1664 12 24.1664Z" fill="#007AB9"/>
<path id="Vector_2" d="M19.1698 13.132V18.0793H16.3014V13.4635C16.3014 12.3046 15.8873 11.5131 14.8488 11.5131C14.0562 11.5131 13.5854 12.0459 13.3775 12.5619C13.302 12.7463 13.2825 13.0023 13.2825 13.261V18.0791H10.4139C10.4139 18.0791 10.4525 10.2615 10.4139 9.45226H13.2827V10.6748C13.2769 10.6844 13.2688 10.6938 13.2637 10.703H13.2827V10.6748C13.6639 10.0882 14.3437 9.24969 15.8678 9.24969C17.755 9.24969 19.1698 10.4827 19.1698 13.132ZM7.4132 5.29382C6.43199 5.29382 5.79004 5.93791 5.79004 6.78414C5.79004 7.61241 6.41338 8.27511 7.37555 8.27511H7.39416C8.39462 8.27511 9.01668 7.61241 9.01668 6.78414C8.99764 5.93791 8.39462 5.29382 7.4132 5.29382ZM5.96053 18.0793H8.82801V9.45226H5.96053V18.0793Z" fill="#F1F2F2"/>
</g>
<defs>
<clipPath id="clip0_972_190">
<rect width="24" height="24" fill="white" transform="translate(0 0.166626)"/>
</clipPath>
</defs>
</svg>
