<svg width="177" height="29" viewBox="0 0 177 29" fill="none" xmlns="http://www.w3.org/2000/svg">
<path d="M19.6431 23H13.8831V13.88H5.88313V23H0.123125V0.599998H5.88313V9.4H13.8831V0.599998H19.6431V23ZM30.2181 6.68V23H24.6181V11H22.2181V6.68H30.2181ZM24.6181 0.279999H30.2181V4.76H24.6181V0.279999ZM44.7881 11.16C44.7881 10.84 44.6815 10.5733 44.4681 10.36C44.2548 10.1467 43.9881 10.04 43.6681 10.04H42.8681C41.9721 10.04 41.1935 10.0827 40.5321 10.168C39.8921 10.2533 39.3908 10.3173 39.0281 10.36V18.68H43.5081C44.3615 18.68 44.7881 18.2533 44.7881 17.4V11.16ZM39.0281 6.36C41.0975 5.93333 42.9108 5.72 44.4681 5.72H45.5881C47.0388 5.72 48.2015 6.15733 49.0761 7.032C49.9508 7.90667 50.3881 9.06933 50.3881 10.52V17.88C50.3881 19.48 49.9295 20.7387 49.0121 21.656C48.1161 22.552 46.8681 23 45.2681 23H33.4281V0.599998H39.0281V6.36ZM59.9919 18.84C61.1225 18.84 62.4025 18.6267 63.8319 18.2V16.28H59.1919C58.8719 16.28 58.6052 16.3867 58.3919 16.6C58.1785 16.8133 58.0719 17.08 58.0719 17.4V17.72C58.0719 18.04 58.1785 18.3067 58.3919 18.52C58.6052 18.7333 58.8719 18.84 59.1919 18.84H59.9919ZM54.0719 6.36C57.9759 5.93333 61.4959 5.72 64.6319 5.72C66.0825 5.72 67.2452 6.15733 68.1199 7.032C68.9945 7.90667 69.4319 9.06933 69.4319 10.52V23H64.4719L64.1519 21.4C63.1492 22.0613 62.1145 22.552 61.0479 22.872C60.0025 23.1707 59.1172 23.32 58.3919 23.32H57.2719C55.8212 23.32 54.6585 22.8827 53.7839 22.008C52.9092 21.1333 52.4719 19.9707 52.4719 18.52V17.08C52.4719 15.6293 52.9092 14.4667 53.7839 13.592C54.6585 12.7173 55.8212 12.28 57.2719 12.28H63.8319V11C63.8319 10.68 63.7252 10.4133 63.5119 10.2C63.2985 9.98667 63.0319 9.88 62.7119 9.88C61.3252 9.88 59.7892 9.944 58.1039 10.072C56.4399 10.2 55.0959 10.296 54.0719 10.36V6.36ZM78.3831 18.52H90.0631V23H72.6231V0.599998H78.3831V18.52ZM109.271 18.2C109.271 19.8 108.812 21.0587 107.895 21.976C106.999 22.872 105.751 23.32 104.151 23.32H96.7906C95.1906 23.32 93.932 22.872 93.0146 21.976C92.1186 21.0587 91.6706 19.8 91.6706 18.2V10.84C91.6706 9.24 92.1186 7.992 93.0146 7.096C93.932 6.17867 95.1906 5.72 96.7906 5.72H104.151C105.751 5.72 106.999 6.17867 107.895 7.096C108.812 7.992 109.271 9.24 109.271 10.84V18.2ZM103.671 11.32C103.671 10.4667 103.244 10.04 102.391 10.04H98.5506C97.6973 10.04 97.2706 10.4667 97.2706 11.32V17.72C97.2706 18.5733 97.6973 19 98.5506 19H102.391C103.244 19 103.671 18.5733 103.671 17.72V11.32ZM123.187 21.72C121.118 22.1467 119.304 22.36 117.747 22.36H116.627C115.176 22.36 114.014 21.9227 113.139 21.048C112.264 20.1733 111.827 19.0107 111.827 17.56V11.16C111.827 9.56 112.275 8.312 113.171 7.416C114.088 6.49867 115.347 6.04 116.947 6.04H128.787V23.96C128.787 25.4107 128.35 26.5733 127.475 27.448C126.6 28.3227 125.438 28.76 123.987 28.76C120.638 28.76 116.904 28.5467 112.787 28.12V23.96C116.862 24.28 119.955 24.44 122.067 24.44C122.387 24.44 122.654 24.3333 122.867 24.12C123.08 23.9067 123.187 23.64 123.187 23.32V21.72ZM119.347 18.04C120.691 18.04 121.971 17.9333 123.187 17.72V10.36H118.707C117.854 10.36 117.427 10.7867 117.427 11.64V16.92C117.427 17.24 117.534 17.5067 117.747 17.72C117.96 17.9333 118.227 18.04 118.547 18.04H119.347ZM139.031 6.68V23H133.431V11H131.031V6.68H139.031ZM133.431 0.279999H139.031V4.76H133.431V0.279999ZM157.281 22.68C153.291 23.1067 149.771 23.32 146.721 23.32C145.27 23.32 144.107 22.8827 143.233 22.008C142.358 21.1333 141.921 19.9707 141.921 18.52V11.16C141.921 9.56 142.369 8.312 143.265 7.416C144.182 6.49867 145.441 6.04 147.041 6.04H157.281V10.36H148.801C147.947 10.36 147.521 10.7867 147.521 11.64V17.88C147.521 18.2 147.627 18.4667 147.841 18.68C148.054 18.8933 148.321 19 148.641 19C150.561 19 153.441 18.84 157.281 18.52V22.68ZM159.194 18.52C163.525 18.84 166.938 19 169.434 19C169.754 19 170.021 18.8933 170.234 18.68C170.448 18.4667 170.554 18.2 170.554 17.88V16.76H163.674C162.224 16.76 161.061 16.3227 160.186 15.448C159.312 14.5733 158.874 13.4107 158.874 11.96V10.84C158.874 9.38933 159.312 8.22667 160.186 7.352C161.061 6.47733 162.224 6.04 163.674 6.04H174.554V10.2H165.594C165.274 10.2 165.008 10.3067 164.794 10.52C164.581 10.7333 164.474 11 164.474 11.32C164.474 11.64 164.581 11.9067 164.794 12.12C165.008 12.3333 165.274 12.44 165.594 12.44H171.354C172.805 12.44 173.968 12.8773 174.842 13.752C175.717 14.6267 176.154 15.7893 176.154 17.24V18.52C176.154 19.9707 175.717 21.1333 174.842 22.008C173.968 22.8827 172.805 23.32 171.354 23.32C167.578 23.32 163.525 23.1067 159.194 22.68V18.52Z" fill="#2E2E2E"/>
</svg>
