<svg width="32" height="32" viewBox="0 0 32 32" fill="none" xmlns="http://www.w3.org/2000/svg">
<path d="M23.7485 30.0016C23.6295 30.0646 23.6395 30.0846 23.7535 30.0266C23.7905 30.0116 23.8215 29.9906 23.8485 29.9656C23.8485 29.9446 23.8485 29.9446 23.7485 30.0016ZM23.9885 29.8716C23.9315 29.9186 23.9315 29.9186 23.9995 29.8876C24.0355 29.8666 24.0675 29.8466 24.0675 29.8406C24.0675 29.8136 24.0515 29.8196 23.9885 29.8716ZM24.1445 29.7776C24.0875 29.8246 24.0875 29.8246 24.1555 29.7936C24.1925 29.7726 24.2235 29.7506 24.2235 29.7456C24.2235 29.7206 24.2075 29.7256 24.1445 29.7776ZM24.3025 29.6846C24.2455 29.7316 24.2455 29.7316 24.3115 29.6996C24.3485 29.6796 24.3795 29.6586 24.3795 29.6526C24.3795 29.6276 24.3635 29.6326 24.3025 29.6846ZM24.5155 29.5436C24.4065 29.6166 24.3685 29.6636 24.4685 29.6116C24.5355 29.5706 24.6495 29.4806 24.6295 29.4806C24.5865 29.4966 24.5505 29.5236 24.5145 29.5436H24.5155ZM14.9525 0.00759417C14.8795 0.0125942 14.6605 0.0325942 14.4685 0.0485942C9.92051 0.460594 5.66551 2.90859 2.96851 6.67959C1.47751 8.74659 0.509512 11.1476 0.144512 13.6686C0.0155117 14.5486 -0.000488281 14.8086 -0.000488281 16.0016C-0.000488281 17.1936 0.0155117 17.4496 0.144512 18.3296C1.01551 24.3406 5.29151 29.3866 11.0875 31.2566C12.1305 31.5896 13.2235 31.8196 14.4685 31.9606C14.9525 32.0126 17.0455 32.0126 17.5295 31.9606C19.6815 31.7206 21.4985 31.1896 23.2965 30.2726C23.5725 30.1326 23.6245 30.0956 23.5875 30.0646C22.7075 28.9036 21.8435 27.7416 20.9785 26.5696L18.4215 23.1166L15.2185 18.3716C14.1505 16.7836 13.0785 15.1996 11.9895 13.6276C11.9785 13.6276 11.9645 15.7366 11.9585 18.3086C11.9475 22.8136 11.9475 22.9966 11.8905 23.1006C11.8335 23.2256 11.7395 23.3296 11.6145 23.3876C11.5155 23.4346 11.4265 23.4446 10.9535 23.4446H10.4125L10.2715 23.3566C10.1835 23.2996 10.1105 23.2206 10.0635 23.1276L9.99551 22.9866L10.0005 16.7156L10.0115 10.4446L10.1105 10.3196C10.1735 10.2426 10.2515 10.1796 10.3395 10.1326C10.4705 10.0696 10.5225 10.0596 11.0635 10.0596C11.6985 10.0596 11.8035 10.0846 11.9705 10.2676C13.2665 12.1996 14.5585 14.1366 15.8295 16.0796C17.9085 19.2316 20.7465 23.5326 22.1415 25.6426L24.6785 29.4816L24.8035 29.3986C26.0225 28.5856 27.1315 27.6176 28.0885 26.5136C30.1045 24.2056 31.4125 21.3666 31.8555 18.3366C31.9845 17.4566 32.0005 17.1956 32.0005 16.0036C32.0005 14.8106 31.9845 14.5556 31.8555 13.6756C30.9845 7.66459 26.7085 2.61859 20.9125 0.747594C19.8285 0.404594 18.7135 0.170594 17.5845 0.0505942C17.2815 0.0195942 15.2135 -0.0174058 14.9535 0.00959417L14.9525 0.00759417ZM21.4995 9.68459C21.6505 9.75659 21.7645 9.89259 21.8165 10.0486C21.8435 10.1326 21.8485 11.8716 21.8435 15.7886L21.8325 21.4126L20.8435 19.8926L19.8485 18.3716V14.2886C19.8485 11.6416 19.8595 10.1576 19.8735 10.0846C19.9205 9.91759 20.0345 9.77759 20.1865 9.68959C20.3105 9.62659 20.3585 9.62159 20.8535 9.62159C21.3165 9.62159 21.3955 9.62659 21.4995 9.68459Z" fill="black"/>
</svg>
