<svg width="36" height="10" viewBox="0 0 36 10" fill="none" xmlns="http://www.w3.org/2000/svg">
<path d="M6.44674 0.795861C6.00889 0.49486 5.43754 0.343994 4.73268 0.343994H2.00386C1.78778 0.343994 1.6684 0.45206 1.64573 0.667985L0.537171 7.62652C0.52565 7.69486 0.542749 7.75737 0.588311 7.81419C0.633612 7.87112 0.690591 7.89942 0.75883 7.89942H2.055C2.28234 7.89942 2.4073 7.79162 2.43024 7.57543L2.73718 5.69946C2.74839 5.60855 2.78837 5.53463 2.85661 5.4777C2.9248 5.42088 3.01008 5.38371 3.11242 5.36666C3.21475 5.34977 3.31124 5.34127 3.40237 5.34127C3.49323 5.34127 3.60119 5.34701 3.72646 5.35832C3.85142 5.36969 3.93107 5.37521 3.96522 5.37521C4.94298 5.37521 5.71044 5.0997 6.26767 4.54811C6.82463 3.99673 7.10342 3.23218 7.10342 2.25416C7.10342 1.5834 6.88437 1.09733 6.44674 0.795861ZM5.03973 2.88525C4.9827 3.28327 4.83507 3.54465 4.59631 3.66976C4.3575 3.79503 4.01641 3.85733 3.57304 3.85733L3.01019 3.87437L3.30019 2.04944C3.32282 1.92449 3.39668 1.86193 3.52185 1.86193H3.846C4.30058 1.86193 4.63051 1.92746 4.83517 2.05799C5.03973 2.18884 5.10797 2.46466 5.03973 2.88525Z" fill="#003087"/>
<path d="M35.2442 0.343994H33.9822C33.8569 0.343994 33.783 0.406551 33.7605 0.531664L32.6519 7.62657L32.6348 7.66066C32.6348 7.7178 32.6575 7.77155 32.7031 7.82274C32.7484 7.87383 32.8054 7.89942 32.8736 7.89942H33.9993C34.2151 7.89942 34.3345 7.79162 34.3575 7.57543L35.4661 0.599694V0.582752C35.466 0.423597 35.3919 0.343994 35.2442 0.343994Z" fill="#009CDE"/>
<path d="M19.9969 3.08959C19.9969 3.03287 19.974 2.97876 19.9288 2.92767C19.8832 2.87653 19.832 2.85083 19.7753 2.85083H18.462C18.3367 2.85083 18.2344 2.90796 18.155 3.02135L16.3472 5.68209L15.5968 3.12378C15.5397 2.94201 15.4147 2.85083 15.2216 2.85083H13.9423C13.8853 2.85083 13.8341 2.87648 13.7889 2.92767C13.7433 2.97876 13.7207 3.03292 13.7207 3.08959C13.7207 3.11253 13.8316 3.44778 14.0532 4.09586C14.2749 4.7441 14.5137 5.44338 14.7695 6.19385C15.0254 6.94417 15.1589 7.34234 15.1703 7.38754C14.2379 8.66109 13.7718 9.34332 13.7718 9.43413C13.7718 9.58207 13.8457 9.65589 13.9936 9.65589H15.3068C15.4318 9.65589 15.5341 9.59917 15.6138 9.48542L19.9629 3.20897C19.9855 3.18639 19.9969 3.14677 19.9969 3.08959Z" fill="#003087"/>
<path d="M32.2257 2.85082H30.9294C30.7702 2.85082 30.6738 3.03849 30.6397 3.41373C30.3438 2.9591 29.804 2.73145 29.0193 2.73145C28.2007 2.73145 27.5041 3.03849 26.9301 3.65249C26.3558 4.26648 26.0688 4.98864 26.0688 5.81856C26.0688 6.48953 26.2649 7.02387 26.6571 7.42168C27.0494 7.8199 27.5753 8.01862 28.2349 8.01862C28.5645 8.01862 28.9 7.95028 29.241 7.81396C29.5822 7.67753 29.8491 7.4957 30.0428 7.26821C30.0428 7.27962 30.0312 7.33071 30.0086 7.42163C29.9857 7.51275 29.9745 7.58109 29.9745 7.62629C29.9745 7.80843 30.0482 7.89914 30.1962 7.89914H31.3731C31.5888 7.89914 31.7141 7.79134 31.7482 7.57515L32.4475 3.12373C32.4587 3.05549 32.4416 2.99304 32.3963 2.93611C32.3507 2.87934 32.294 2.85082 32.2257 2.85082ZM30.0001 6.21079C29.7101 6.49506 29.3605 6.63711 28.9512 6.63711C28.6213 6.63711 28.3544 6.5463 28.1496 6.36426C27.9449 6.18264 27.8425 5.93247 27.8425 5.61385C27.8425 5.19341 27.9846 4.83783 28.269 4.54793C28.5529 4.25798 28.9057 4.11301 29.3264 4.11301C29.6445 4.11301 29.9089 4.20684 30.1194 4.39436C30.3296 4.58203 30.435 4.84075 30.435 5.17053C30.435 5.5798 30.29 5.92668 30.0001 6.21079Z" fill="#009CDE"/>
<path d="M12.8509 2.85082H11.5547C11.3952 2.85082 11.2988 3.03849 11.2646 3.41373C10.9577 2.9591 10.4175 2.73145 9.64438 2.73145C8.82572 2.73145 8.12921 3.03849 7.5551 3.65249C6.98083 4.26648 6.69385 4.98864 6.69385 5.81856C6.69385 6.48953 6.89001 7.02387 7.2823 7.42168C7.67458 7.8199 8.20031 8.01862 8.85987 8.01862C9.17807 8.01862 9.50801 7.95028 9.84905 7.81396C10.1901 7.67753 10.463 7.4957 10.6677 7.26821C10.6221 7.40463 10.5995 7.52406 10.5995 7.62629C10.5995 7.80843 10.6733 7.89914 10.8212 7.89914H11.998C12.2138 7.89914 12.3391 7.79134 12.3732 7.57515L13.0724 3.12373C13.0836 3.05549 13.0666 2.99304 13.0213 2.93611C12.9758 2.87934 12.919 2.85082 12.8509 2.85082ZM10.6251 6.21924C10.3351 6.49813 9.97963 6.63711 9.5592 6.63711C9.22927 6.63711 8.96491 6.5463 8.76609 6.36426C8.567 6.18264 8.46759 5.93247 8.46759 5.61385C8.46759 5.19341 8.60964 4.83783 8.89402 4.54793C9.17807 4.25798 9.53058 4.11301 9.95143 4.11301C10.2696 4.11301 10.534 4.20684 10.7445 4.39436C10.9547 4.58203 11.06 4.84075 11.06 5.17053C11.06 5.59122 10.9151 5.94096 10.6251 6.21924Z" fill="#003087"/>
<path d="M25.8217 0.795861C25.384 0.49486 24.8127 0.343994 24.1077 0.343994H21.396C21.1684 0.343994 21.0433 0.45206 21.0207 0.667985L19.9122 7.62652C19.9007 7.69486 19.9177 7.75737 19.9633 7.81419C20.0085 7.87112 20.0656 7.89942 20.1338 7.89942H21.5323C21.6687 7.89942 21.7596 7.82561 21.8052 7.67776L22.1122 5.69946C22.1235 5.60855 22.1633 5.53463 22.2316 5.4777C22.2999 5.42088 22.385 5.38371 22.4875 5.36666C22.5898 5.34977 22.6862 5.34127 22.7774 5.34127C22.8683 5.34127 22.9762 5.34701 23.1014 5.35832C23.2264 5.36969 23.3062 5.37521 23.3401 5.37521C24.318 5.37521 25.0854 5.0997 25.6426 4.54811C26.1997 3.99673 26.4783 3.23218 26.4783 2.25416C26.4784 1.5834 26.2594 1.09733 25.8217 0.795861ZM24.0736 3.60152C23.8234 3.77204 23.4482 3.85728 22.948 3.85728L22.4022 3.87432L22.6922 2.04939C22.7147 1.92443 22.7886 1.86188 22.9139 1.86188H23.2207C23.4708 1.86188 23.6698 1.87324 23.8178 1.89592C23.9654 1.9188 24.1077 1.9897 24.2442 2.10908C24.3807 2.22846 24.4488 2.40195 24.4488 2.62929C24.4488 3.10691 24.3236 3.43085 24.0736 3.60152Z" fill="#009CDE"/>
</svg>
