<svg width="32" height="32" viewBox="0 0 32 32" fill="none" xmlns="http://www.w3.org/2000/svg">
<g clip-path="url(#clip0_895_404)">
<path d="M27.2 0H4.8C2.14903 0 0 2.14903 0 4.8V27.2C0 29.851 2.14903 32 4.8 32H27.2C29.851 32 32 29.851 32 27.2V4.8C32 2.14903 29.851 0 27.2 0Z" fill="#777BB3"/>
<path d="M9.6875 12.6251H6.0625C6.02192 12.6228 5.98169 12.6337 5.94788 12.6562C5.91406 12.6788 5.88848 12.7117 5.875 12.7501L4.1875 21.5626C4.1875 21.7501 4.375 21.7501 4.375 21.7501H6.25C6.4375 21.7501 6.4375 21.6251 6.4375 21.6251L6.875 19.4376H8.5625C11.1875 19.4376 12.5 17.6876 12.8125 16.1251C13.125 14.5626 12.875 12.6251 9.6875 12.6251ZM10.5 16.0001C10.25 17.1876 9.4375 17.6876 8.3125 17.6876H7.1875L7.875 14.3751H9C10.6875 14.3751 10.625 15.0001 10.5 16.0001Z" fill="black" stroke="white" stroke-width="0.375"/>
<path d="M17.1875 19.4375C16.9375 19.4375 17 19.1875 17 19.1875L17.75 15.375C17.75 14.875 18.125 14.375 16.625 14.4375H15.5L14.5625 19.3125C14.5625 19.3125 14.5625 19.5 14.3125 19.5H12.5C12.3125 19.5 12.3125 19.3125 12.3125 19.3125L14.0625 10.5C14.0625 10.5 14.0625 10.375 14.3125 10.375H16.1875C16.375 10.375 16.3125 10.5625 16.3125 10.5625L15.875 12.6875H17.5C19.75 12.6875 20.3125 13.75 20.125 15L19.3125 19.3125C19.3125 19.3125 19.3125 19.5 19 19.5L17.1875 19.4375Z" fill="black" stroke="white" stroke-width="0.375"/>
<path d="M24.625 12.6251H21C20.9594 12.6228 20.9192 12.6337 20.8854 12.6562C20.8516 12.6788 20.826 12.7117 20.8125 12.7501L19.125 21.5626C19.125 21.7501 19.3125 21.7501 19.3125 21.7501H21.1875C21.375 21.7501 21.375 21.6251 21.375 21.6251L21.8125 19.4376H23.5C26.125 19.4376 27.4375 17.6876 27.75 16.1251C28.0625 14.5626 27.8125 12.6251 24.625 12.6251ZM25.4375 16.0001C25.1875 17.1876 24.375 17.6876 23.25 17.6876H22.125L22.8125 14.3751H23.9375C25.625 14.3751 25.5625 15.0001 25.4375 16.0001Z" fill="black" stroke="white" stroke-width="0.375"/>
</g>
<defs>
<clipPath id="clip0_895_404">
<rect width="32" height="32" fill="white"/>
</clipPath>
</defs>
</svg>
