<svg width="36" height="32" viewBox="0 0 36 32" fill="none" xmlns="http://www.w3.org/2000/svg">
<path d="M17.9999 19.2427C19.7907 19.2427 21.2424 17.7909 21.2424 16.0001C21.2424 14.2093 19.7907 12.7576 17.9999 12.7576C16.2091 12.7576 14.7573 14.2093 14.7573 16.0001C14.7573 17.7909 16.2091 19.2427 17.9999 19.2427Z" fill="#61DAFB"/>
<path d="M30.316 10.6526C29.6903 10.4251 29.0361 10.1975 28.3534 9.99844C28.5241 9.3158 28.6663 8.63315 28.7801 7.97895C29.3774 4.22441 28.7232 1.57916 26.9028 0.555194C26.3624 0.242315 25.7651 0.100098 25.0824 0.100098C23.0914 0.100098 20.5599 1.57916 18 4.05375C15.4401 1.57916 12.9086 0.100098 10.9175 0.100098C10.2349 0.100098 9.63758 0.242315 9.09716 0.555194C7.27677 1.6076 6.62257 4.25285 7.21988 7.97895C7.33366 8.63315 7.47588 9.3158 7.64654 9.99844C6.96389 10.1975 6.30969 10.3966 5.68393 10.6526C2.1285 12.0179 0.194336 13.8952 0.194336 16C0.194336 18.1048 2.15694 19.9821 5.68393 21.3474C6.30969 21.575 6.96389 21.8025 7.64654 22.0016C7.47588 22.6842 7.33366 23.3669 7.21988 24.0211C6.62257 27.7756 7.27677 30.4209 9.09716 31.4449C9.63758 31.7577 10.2349 31.8999 10.9175 31.8999C12.937 31.8999 15.4685 30.4209 18 27.9463C20.5599 30.4209 23.0914 31.8999 25.0824 31.8999C25.7651 31.8999 26.3624 31.7577 26.9028 31.4449C28.7232 30.3924 29.3774 27.7472 28.7801 24.0211C28.6663 23.3669 28.5241 22.6842 28.3534 22.0016C29.0361 21.8025 29.6903 21.6034 30.316 21.3474C33.8715 19.9821 35.8056 18.1048 35.8056 16C35.8056 13.8952 33.8715 12.0179 30.316 10.6526ZM26.1064 1.97737C27.2726 2.66001 27.6708 4.76483 27.1872 7.7514C27.1019 8.34872 26.9597 8.97447 26.789 9.62868C25.31 9.28735 23.7456 9.0598 22.0958 8.91759C21.1288 7.5523 20.1332 6.32923 19.1377 5.21993C21.2425 3.14355 23.3758 1.72138 25.1109 1.72138C25.4806 1.72138 25.8219 1.80671 26.1064 1.97737ZM22.9207 18.8444C22.4087 19.7546 21.8114 20.6648 21.1856 21.575C20.1332 21.6603 19.0808 21.6887 18 21.6887C16.8907 21.6887 15.8383 21.6603 14.8143 21.575C14.1885 20.6648 13.6197 19.7546 13.1077 18.8444C12.5673 17.9057 12.0553 16.9387 11.6002 16C12.0553 15.0614 12.5673 14.0943 13.1077 13.1557C13.6197 12.2455 14.217 11.3353 14.8427 10.4251C15.8952 10.3398 16.9476 10.3113 18.0284 10.3113C19.1377 10.3113 20.1901 10.3398 21.2141 10.4251C21.8399 11.3353 22.4087 12.2455 22.9207 13.1557C23.4611 14.0943 23.9731 15.0614 24.4282 16C23.9447 16.9387 23.4611 17.8773 22.9207 18.8444ZM25.2815 17.9057C25.7082 18.9013 26.0495 19.8683 26.3624 20.8354C25.3953 21.063 24.3713 21.2336 23.2905 21.3758C23.6318 20.8354 24.0016 20.2666 24.3144 19.6692C24.6558 19.0719 24.9686 18.4746 25.2815 17.9057ZM18 25.6139C17.3173 24.8744 16.6631 24.078 16.0374 23.2531C16.6916 23.2816 17.3458 23.31 18 23.31C18.6542 23.31 19.3084 23.2816 19.9626 23.2531C19.3368 24.078 18.6826 24.8744 18 25.6139ZM12.7095 21.3474C11.6286 21.2052 10.6047 21.0345 9.63758 20.807C9.95046 19.8683 10.2918 18.8728 10.7184 17.8773C11.0313 18.4462 11.3442 19.0435 11.6855 19.6123C12.0268 20.2381 12.3682 20.7785 12.7095 21.3474ZM10.7184 14.0943C10.2918 13.0988 9.95046 12.1317 9.63758 11.1646C10.6047 10.9371 11.6286 10.7664 12.7095 10.6242C12.3682 11.1646 11.9984 11.7335 11.6855 12.3308C11.3442 12.9281 11.0313 13.5254 10.7184 14.0943ZM18 6.38611C18.6826 7.12565 19.3368 7.92206 19.9626 8.74693C19.3084 8.71848 18.6542 8.69004 18 8.69004C17.3458 8.69004 16.6916 8.71848 16.0374 8.74693C16.6631 7.92206 17.3173 7.12565 18 6.38611ZM24.3144 12.3593L23.2905 10.6526C24.3713 10.7949 25.3953 10.9655 26.3624 11.1931C26.0495 12.1317 25.7082 13.1272 25.2815 14.1228C24.9686 13.5254 24.6558 12.9281 24.3144 12.3593ZM8.81272 7.7514C8.32918 4.76483 8.72739 2.66001 9.89357 1.97737C10.178 1.80671 10.5193 1.72138 10.8891 1.72138C12.5957 1.72138 14.729 3.11511 16.8622 5.21993C15.8667 6.30078 14.8712 7.5523 13.9041 8.91759C12.2544 9.0598 10.69 9.3158 9.21093 9.62868C9.04027 8.97447 8.9265 8.34872 8.81272 7.7514ZM1.78717 16C1.78717 14.6632 3.40845 13.241 6.25281 12.1886C6.82168 11.961 7.44743 11.7619 8.07319 11.5913C8.52829 13.0135 9.09716 14.521 9.7798 16.0285C9.09716 17.536 8.49984 19.015 8.07319 20.4372C4.14798 19.2995 1.78717 17.5929 1.78717 16ZM9.89357 30.0227C8.72739 29.34 8.32918 27.2352 8.81272 24.2486C8.89805 23.6513 9.04027 23.0256 9.21093 22.3714C10.69 22.7127 12.2544 22.9402 13.9041 23.0825C14.8712 24.4477 15.8667 25.6708 16.8622 26.7801C14.7574 28.8565 12.6242 30.2787 10.8891 30.2787C10.5193 30.2787 10.178 30.1933 9.89357 30.0227ZM27.1872 24.2486C27.6708 27.2352 27.2726 29.34 26.1064 30.0227C25.8219 30.1933 25.4806 30.2787 25.1109 30.2787C23.4042 30.2787 21.271 28.8849 19.1377 26.7801C20.1332 25.6993 21.1288 24.4477 22.0958 23.0825C23.7456 22.9402 25.31 22.6842 26.789 22.3714C26.9597 23.0256 27.0735 23.6513 27.1872 24.2486ZM29.7471 19.8115C29.1783 20.039 28.5525 20.2381 27.9268 20.4088C27.4717 18.9866 26.9028 17.4791 26.2202 15.9716C26.9028 14.4641 27.5001 12.985 27.9268 11.5628C31.852 12.7006 34.2128 14.4072 34.2128 16C34.2128 17.3369 32.5631 18.759 29.7471 19.8115Z" fill="#61DAFB"/>
</svg>
