<svg width="24" height="34" viewBox="0 0 24 34" fill="none" xmlns="http://www.w3.org/2000/svg">
<path d="M10.0966 32.9949C7.0983 32.7788 4.13491 32.0241 2.3175 31.0137C1.28229 30.4383 0.493616 29.731 0.184134 29.1007L0 28.7257V16.9621V5.19847L0.145704 4.90262C0.796832 3.58066 2.87488 2.3889 5.77571 1.67384C6.76041 1.43109 8.18196 1.18935 9.34168 1.06745C10.5259 0.942941 13.6648 0.961884 14.846 1.10085C17.9856 1.46971 20.6572 2.29549 22.3036 3.406C22.9385 3.83426 23.59 4.5195 23.8108 4.99118L24 5.39559L23.9838 17.1236L23.9676 28.8517L23.8157 29.1603C23.7322 29.33 23.4798 29.6639 23.2549 29.9023C21.8859 31.3535 18.9494 32.4271 15.0977 32.8845C14.3126 32.9777 10.902 33.0529 10.0966 32.9949ZM15.6219 22.915C15.6104 22.885 15.1622 22.4857 14.6259 22.0277C14.0896 21.5697 13.6277 21.1734 13.5995 21.1471C13.5712 21.1208 13.6703 21.0277 13.8197 20.9401C13.969 20.8526 14.2551 20.6091 14.4555 20.399C15.0414 19.7846 15.3178 19.0256 15.3178 18.0315C15.3178 17.0528 15.0197 16.2632 14.4225 15.6604C13.8206 15.0528 13.1296 14.7918 12.1232 14.7918C10.5719 14.7918 9.38058 15.6969 9.00033 17.1644C8.86953 17.6691 8.87023 18.6891 9.0017 19.1366C9.34462 20.3041 10.2786 21.152 11.4409 21.3511C11.8342 21.4185 11.8875 21.4475 12.1557 21.7407C12.3151 21.915 12.6421 22.2627 12.8824 22.5136L13.3195 22.9697H14.4812C15.1201 22.9697 15.6334 22.9451 15.6219 22.915ZM11.6379 19.6623C11.3582 19.5165 11.2525 19.4033 11.093 19.0791C10.9699 18.8287 10.9488 18.6863 10.9474 18.0944C10.946 17.493 10.9652 17.363 11.0938 17.1019C11.3042 16.6746 11.5942 16.4723 12.0427 16.4398C12.6671 16.3945 13.0276 16.701 13.2164 17.4374C13.448 18.3403 13.1934 19.3003 12.6377 19.6188C12.3462 19.786 11.9114 19.8049 11.6379 19.6623ZM6.48868 21.3383C7.70667 21.1073 8.39808 20.399 8.39808 19.3822C8.39808 18.4801 7.9517 17.9545 6.718 17.4037C6.01177 17.0885 5.75597 16.8906 5.75597 16.6593C5.75597 16.4677 5.99872 16.2577 6.28133 16.2049C6.55727 16.1534 7.28911 16.2805 7.72128 16.4551L8.08354 16.6014V15.7996V14.9977L7.69036 14.9104C7.44737 14.8565 6.93677 14.8242 6.35358 14.8259C5.52752 14.8259 5.36577 14.846 5.0549 14.9694C4.14685 15.3299 3.71595 15.944 3.72284 16.8677C3.72929 17.7325 4.18548 18.2719 5.32084 18.7571C5.99074 19.0434 6.25924 19.2615 6.25924 19.5191C6.25924 20.0666 5.34699 20.134 4.38115 19.6578C4.11664 19.5274 3.87899 19.4101 3.85304 19.3971C3.8271 19.3841 3.80587 19.7587 3.80587 20.2295C3.80587 21.0817 3.80678 21.0858 3.96107 21.1446C4.54211 21.3655 5.82631 21.4639 6.48868 21.3383ZM20.4133 20.5477V19.8243H19.3124H18.2116V17.3395V14.8547H17.2365H16.2615V18.0629V21.2712H18.3374H20.4133V20.5477ZM13.6193 7.87038C15.557 7.73599 17.0094 7.48225 18.2875 7.05492C19.5608 6.62918 20.313 6.11404 20.4812 5.55249C20.5461 5.3361 20.5414 5.25402 20.4508 5.01676C20.0446 3.95311 17.7754 3.1359 14.3078 2.80456C12.8245 2.6628 10.127 2.70875 8.71269 2.8998C6.55471 3.19137 4.8034 3.73295 4.02469 4.34955C2.44946 5.59692 4.11528 6.96886 7.9892 7.61461C9.66892 7.8946 11.8451 7.99347 13.6193 7.87038Z" fill="#00BCF2"/>
</svg>
