<svg width="32" height="14" viewBox="0 0 32 14" fill="none" xmlns="http://www.w3.org/2000/svg">
<g clip-path="url(#clip0_897_827)">
<path d="M2.24889 5.53028C2.24889 5.18361 2.53333 5.05028 3.00444 5.05028C3.68 5.05028 4.53333 5.25472 5.20889 5.61917V3.53028C4.47111 3.23694 3.74222 3.12139 3.00444 3.12139C1.2 3.12139 0 4.06361 0 5.63694C0 8.09028 3.37778 7.69917 3.37778 8.75694C3.37778 9.16583 3.02222 9.29917 2.52444 9.29917C1.78667 9.29917 0.844444 8.99694 0.0977778 8.58806V10.7036C0.924444 11.0592 1.76 11.2103 2.52444 11.2103C4.37333 11.2103 5.64444 10.2947 5.64444 8.70361C5.63556 6.05472 2.24889 6.52583 2.24889 5.53028ZM8.25778 1.34361L6.08889 1.80583L6.08 8.92583C6.08 10.2414 7.06667 11.2103 8.38222 11.2103C9.11111 11.2103 9.64444 11.0769 9.93778 10.9169V9.1125C9.65333 9.22806 8.24889 9.63694 8.24889 8.32139V5.16583H9.93778V3.2725H8.24889L8.25778 1.34361ZM12.7022 3.93028L12.56 3.2725H10.64V11.0503H12.8622V5.77917C13.3867 5.09472 14.2756 5.21917 14.5511 5.31694V3.2725C14.2667 3.16583 13.2267 2.97028 12.7022 3.93028ZM15.0933 3.2725H17.3244V11.0503H15.0933V3.2725ZM15.0933 2.59694L17.3244 2.11694V0.3125L15.0933 0.783611V2.59694ZM21.9644 3.12139C21.0933 3.12139 20.5333 3.53028 20.2222 3.81472L20.1067 3.26361H18.1511V13.6281L20.3733 13.1569L20.3822 10.6414C20.7022 10.8725 21.1733 11.2014 21.9556 11.2014C23.5467 11.2014 24.9956 9.92139 24.9956 7.10361C24.9867 4.52583 23.52 3.12139 21.9644 3.12139ZM21.4311 9.24583C20.9067 9.24583 20.5956 9.05917 20.3822 8.82806L20.3733 5.53028C20.6044 5.2725 20.9244 5.09472 21.4311 5.09472C22.24 5.09472 22.8 6.00139 22.8 7.16583C22.8 8.35695 22.2489 9.24583 21.4311 9.24583ZM32 7.1925C32 4.91694 30.8978 3.12139 28.7911 3.12139C26.6756 3.12139 25.3956 4.91694 25.3956 7.17472C25.3956 9.85028 26.9067 11.2014 29.0756 11.2014C30.1333 11.2014 30.9333 10.9614 31.5378 10.6236V8.84583C30.9333 9.14806 30.24 9.33472 29.36 9.33472C28.4978 9.33472 27.7333 9.0325 27.6356 7.98361H31.9822C31.9822 7.86806 32 7.40583 32 7.1925ZM27.6089 6.34806C27.6089 5.34361 28.2222 4.92583 28.7822 4.92583C29.3244 4.92583 29.9022 5.34361 29.9022 6.34806H27.6089Z" fill="#6772E5"/>
</g>
<defs>
<clipPath id="clip0_897_827">
<rect width="32" height="13.375" fill="white" transform="translate(0 0.3125)"/>
</clipPath>
</defs>
</svg>
