<svg width="32" height="20" viewBox="0 0 32 20" fill="none" xmlns="http://www.w3.org/2000/svg">
<path d="M15.9998 0.399902C11.7331 0.399902 9.06636 2.53328 7.99967 6.80003C9.59971 4.66666 11.4664 3.86664 13.5998 4.39998C14.817 4.70429 15.687 5.58733 16.65 6.56483C18.2187 8.15716 20.0343 10.0001 24 10.0001C28.2668 10.0001 30.9335 7.86672 32.0002 3.59997C30.4001 5.73334 28.5334 6.53336 26.4 6.00002C25.1828 5.69571 24.3128 4.81267 23.3499 3.83517C21.7811 2.24284 19.9655 0.399902 15.9998 0.399902ZM7.99967 10.0001C3.73292 10.0001 1.0662 12.1335 -0.000488281 16.4002C1.59954 14.2669 3.46625 13.4668 5.59963 14.0002C6.81683 14.3045 7.68684 15.1875 8.64982 16.165C10.2186 17.7574 12.0342 19.6003 15.9998 19.6003C20.2666 19.6003 22.9333 17.4669 24 13.2002C22.4 15.3335 20.5333 16.1336 18.3999 15.6002C17.1827 15.2959 16.3127 14.4129 15.3497 13.4354C13.7809 11.843 11.9653 10.0001 7.99967 10.0001Z" fill="url(#paint0_linear_895_434)"/>
<defs>
<linearGradient id="paint0_linear_895_434" x1="-227.561" y1="946.595" x2="7613.51" y2="3666.25" gradientUnits="userSpaceOnUse">
<stop stop-color="#2298BD"/>
<stop offset="1" stop-color="#0ED7B5"/>
</linearGradient>
</defs>
</svg>
