<svg width="24" height="25" viewBox="0 0 24 25" fill="none" xmlns="http://www.w3.org/2000/svg">
<g id="Group 14575">
<path id="Vector" d="M24 12.1666C24 5.53921 18.6274 0.166626 12 0.166626C5.37258 0.166626 0 5.53921 0 12.1666C0 18.794 5.37258 24.1666 12 24.1666C18.6274 24.1666 24 18.794 24 12.1666Z" fill="#00D95F"/>
<g id="Group">
<path id="Vector_2" d="M6 17.7222L6.86098 14.5209C6.16663 13.2738 5.94603 11.8186 6.23965 10.4223C6.53328 9.02592 7.32144 7.78212 8.45951 6.9191C9.59757 6.0561 11.0092 5.63176 12.4354 5.72394C13.8615 5.81613 15.2066 6.41869 16.2237 7.42103C17.2407 8.42337 17.8617 9.75826 17.9725 11.1807C18.0832 12.6032 17.6765 14.0179 16.8268 15.1652C15.9772 16.3124 14.7416 17.1153 13.3469 17.4265C11.9521 17.7377 10.4918 17.5363 9.23375 16.8593L6 17.7222ZM9.38966 15.6613L9.58965 15.7798C10.5009 16.319 11.5651 16.5421 12.6166 16.4144C13.6681 16.2867 14.6478 15.8153 15.4029 15.0737C16.158 14.3321 16.6462 13.362 16.7914 12.3145C16.9366 11.267 16.7306 10.2009 16.2056 9.28248C15.6805 8.36405 14.8659 7.6448 13.8887 7.23681C12.9114 6.82885 11.8265 6.75506 10.8028 7.02698C9.77919 7.29888 8.87441 7.90123 8.22947 8.74011C7.58453 9.57899 7.23565 10.6073 7.23722 11.6648C7.23638 12.5416 7.47926 13.4015 7.93889 14.1487L8.06431 14.3551L7.58298 16.1419L9.38966 15.6613Z" fill="white"/>
<path id="Vector_3" fill-rule="evenodd" clip-rule="evenodd" d="M14.2437 12.487C14.1265 12.3925 13.9892 12.3261 13.8423 12.2927C13.6955 12.2593 13.543 12.2597 13.3963 12.2941C13.176 12.3854 13.0336 12.7306 12.8912 12.9032C12.8612 12.9446 12.8171 12.9736 12.7672 12.9848C12.7173 12.996 12.665 12.9887 12.6201 12.9641C11.8134 12.6487 11.1373 12.0703 10.7015 11.3228C10.6643 11.2762 10.6468 11.217 10.6524 11.1577C10.6582 11.0983 10.6867 11.0435 10.732 11.0047C10.8908 10.8478 11.0074 10.6534 11.071 10.4396C11.0851 10.2038 11.031 9.96882 10.9151 9.7628C10.8255 9.47399 10.6549 9.21683 10.4236 9.02171C10.3043 8.96813 10.172 8.95018 10.0427 8.96999C9.91335 8.98981 9.79254 9.04653 9.6948 9.13337C9.52513 9.2795 9.39048 9.46178 9.30073 9.66676C9.21095 9.87176 9.16841 10.0942 9.1762 10.3178C9.1767 10.4433 9.19266 10.5684 9.22364 10.69C9.30235 10.9824 9.4234 11.2617 9.58295 11.5191C9.69805 11.7163 9.82365 11.9072 9.9592 12.091C10.3997 12.6947 10.9534 13.2073 11.5896 13.6003C11.9089 13.8 12.2501 13.9624 12.6065 14.0842C12.9768 14.2518 13.3856 14.3161 13.7895 14.2703C14.0196 14.2356 14.2377 14.1449 14.4245 14.0062C14.6113 13.8675 14.761 13.6851 14.8606 13.4751C14.9192 13.3482 14.9369 13.2064 14.9115 13.069C14.8505 12.7881 14.4742 12.6223 14.2437 12.487Z" fill="white"/>
</g>
</g>
</svg>
