<svg width="32" height="32" viewBox="0 0 32 32" fill="none" xmlns="http://www.w3.org/2000/svg">
<path d="M0 11.5809C0 7.52723 0 5.50038 0.788903 3.95207C1.48285 2.59014 2.59014 1.48285 3.95207 0.788903C5.50038 0 7.52723 0 11.5809 0H20.4191C24.4728 0 26.4997 0 28.0479 0.788903C29.4098 1.48285 30.5171 2.59014 31.2111 3.95207C32 5.50038 32 7.52723 32 11.5809V20.4191C32 24.4728 32 26.4997 31.2111 28.0479C30.5171 29.4098 29.4098 30.5171 28.0479 31.2111C26.4997 32 24.4728 32 20.4191 32H11.5809C7.52723 32 5.50038 32 3.95207 31.2111C2.59014 30.5171 1.48285 29.4098 0.788903 28.0479C0 26.4997 0 24.4728 0 20.4191V11.5809Z" fill="#470137"/>
<path d="M16.7392 9.40989L12.7464 16.1692L17.0182 23.3467C17.107 23.5094 17.0182 23.5454 16.8895 23.5454H13.8413C13.6265 23.5454 13.4762 23.5377 13.3904 23.3908C13.1039 22.8183 12.8177 22.2495 12.5317 21.6844C12.2453 21.1195 11.9412 20.5434 11.6194 19.9561C11.2974 19.3692 10.979 18.7748 10.6641 18.1727C10.3777 18.7599 10.0592 19.347 9.75178 19.9341C9.44389 20.5213 9.13978 21.1047 8.83945 21.6844C8.53893 22.2644 8.23124 22.8405 7.91641 23.4127C7.85905 23.5449 7.75873 23.5585 7.61581 23.5585H4.67493C4.55938 23.5585 4.54544 23.4716 4.61054 23.3687L8.75357 16.3893L4.71784 9.38783C4.64453 9.28794 4.70762 9.18154 4.8252 9.18966H7.85195C7.98301 9.18234 8.09884 9.23171 8.17396 9.34383C8.43157 9.93103 8.71779 10.5182 9.03261 11.1052C9.34721 11.6924 9.66572 12.2723 9.98789 12.8445C10.31 13.417 10.6284 13.9967 10.9002 14.5839C11.1863 13.9822 11.4761 13.3951 11.7696 12.8226C12.0629 12.2501 12.3633 11.674 12.6712 11.0942C12.9789 10.5146 13.2758 9.93846 13.5621 9.36589C13.6001 9.24029 13.6911 9.17663 13.8197 9.18966H16.6318C16.7392 9.18966 16.7836 9.33629 16.7392 9.40989Z" fill="#FF61F6"/>
<path d="M22.9001 23.8314C21.0069 23.861 19.0239 23.0815 18.0271 21.3545C17.5405 20.5254 17.2972 19.487 17.2973 18.2391C17.2892 17.2286 17.541 16.2337 18.0271 15.3549C19.2817 13.1123 21.809 12.2721 24.2095 12.4927V8.15527C24.2095 8.05274 24.2525 8.00115 24.3383 8.00115H27.0431C27.1171 7.99032 27.1825 8.05741 27.1719 8.13323V21.1454C27.1719 21.6822 27.2252 22.2171 27.2579 22.7526C27.2631 22.844 27.2102 22.9345 27.129 22.9728C25.7926 23.5445 24.3466 23.8248 22.9001 23.8314ZM24.2095 21.1013V15.0906C22.2489 14.5459 20.3453 16.0393 20.3455 18.107C20.299 20.2447 22.1418 21.7216 24.2095 21.1013Z" fill="#FF61F6"/>
</svg>
